<?xml version="1.0" encoding="UTF-8"?>
<svg id="Ebene_1" xmlns="http://www.w3.org/2000/svg" version="1.1" viewBox="0 0 419.53 595.28">
  <!-- Generator: Adobe Illustrator 29.6.1, SVG Export Plug-In . SVG Version: 2.1.1 Build 9)  -->
  <defs>
    <style>
      .st0 {
        fill: #fbbc5b;
      }

      .st1 {
        fill: #f08239;
      }

      .st2 {
        fill: #fff;
      }

      .st3 {
        fill: #fbd89d;
      }

      .st4 {
        fill: #406f8e;
      }

      .st5 {
        fill: #0c0e1b;
      }

      .st6 {
        fill: #1d1d1b;
        stroke: #fff;
        stroke-miterlimit: 10;
        stroke-width: 4px;
      }

      .st7 {
        fill: #202138;
      }

      .st8 {
        fill: #f49b6d;
      }

      .st9 {
        fill: #1c152f;
      }

      .st10 {
        fill: #335874;
      }

      .st11 {
        fill: #f4963a;
      }

      .st12 {
        fill: #f7a72e;
      }

      .st13 {
        fill: #fafdff;
      }

      .st14 {
        fill: #ed6d39;
      }

      .st15 {
        fill: #f7b07c;
      }

      .st16 {
        fill: #fcc325;
      }
    </style>
  </defs>
  <path class="st6" d="M117.62,203.87h-62.81c-4.79,0-8.57-4.16-8.43-9.28l2.48-94.14c.13-5.12,4.13-9.27,8.92-9.27h62.81c4.79,0,8.57,4.16,8.43,9.28l-2.48,94.14c-.13,5.12-4.13,9.27-8.92,9.27Z"/>
  <g id="Generatives_Objekt">
    <path class="st14" d="M84.59,175.29c.01.05.51.79.62.84,2.62,1.1,1.6-4.75-.72-1.03-2.51-.33-5.25-1.09-7.52-2.24-1.06-.54-2.17-1.57-3.17-2.04-3.52-1.63-11.6,1.57-12.63-5.07-.64-4.18,2.28-4.66,2.94-8.24.25,2.64-2.85,3.78-2.81,6.57l.27-.07c-.02.25,0,.72.03.97-.68.47.31,2.27.63,2.74,2.28,3.34,6.88,2.12,10.08,2.32,4.13,1.13,8.38,2.9,12.71,3.17,21.28,1.32,34.24-21.74,23.53-40.98-1.06-1.9-2.46-3.57-3.64-5.37.22-.58.06-.99-.05-1.56.6.9.19.96.32,1.49.04.18,1.96,2.09,2.27,2.48,13.66,17.47,3.84,43.2-17.53,45.95-.59.08-2.63-.03-2.92.09-.45.2-1.53,2.52-2.42-.04Z"/>
    <path class="st16" d="M85.63,118.87c.77-.08,1.51-.06,2.28-.05.09.04-.06.19-.09.2-.39.16-2.44.26-3.09.4-7.62,1.55-14.34,6.05-18.93,12.79-.67.98-1.13,2.15-1.92,3.05,3.63-8.64,12.99-15.48,21.74-16.39Z"/>
    <path class="st16" d="M111.86,163.47c.46-.07,0,.64-.11.84-2.16,4.23-8.18,9.2-12.31,10.99-1.17.51-2.72,1.1-3.94,1.09,6.72-2.16,12.4-6.73,16.36-12.92Z"/>
    <path class="st12" d="M62.86,131.57c.42,2.05-2.28,3.51-3.15,1.57.29-.87.16-1.71.93-2.35l-.46-.21c1.15-.67,2.34-.42,2.68.99Z"/>
    <path class="st12" d="M104.88,125.32c.1.56.27.98.05,1.56-.48,1.26-2.45,1.1-2.74.13-.08-.26.09-1.7.21-1.92.53-.92,1.93-.59,2.47.23Z"/>
    <path class="st16" d="M116.46,146.79c.35-.05.3,1.73.29,2.08-.04,2.81-1.08,7.47-2.15,10.09-.07.16-1.15,2.73-1.15,1.34,0-.2,1.11-2.77,1.27-3.3.68-2.3,1.16-4.73,1.42-7.11.05-.48,0-3.04.32-3.09Z"/>
    <path class="st16" d="M61.02,144.37l.28,11.88c-1.4-3.47-1.44-8.24-.28-11.88Z"/>
    <path class="st12" d="M107.06,172.07c-.04.52.69.72.86,1.36.05.17-.08.53.11.63-.28,1.33-1.88,1.36-2.55.36-.52-1.24.32-2.47,1.57-2.35Z"/>
    <path class="st12" d="M84.59,175.29c-.03-.1-.1-.11-.1-.19,2.32-3.72,3.34,2.13.72,1.03-.1-.04-.61-.79-.62-.84Z"/>
    <path class="st1" d="M59.92,130.89c-.5.74-.56,1.47-.2,2.26.86,1.94,3.57.48,3.15-1.57.22.91.01,1.85-.79,2.39-1.89,1.27-3.86-1.39-2.15-3.08Z"/>
    <path class="st16" d="M59.71,133.14c-.35-.79-.3-1.51.2-2.26.08-.08.09-.21.26-.31l.46.21c-.77.65-.64,1.49-.93,2.35Z"/>
    <path class="st9" d="M71.89,120.84c.99-.4,1.04,1.44.04,1.17-.43-.12-.45-1-.04-1.17Z"/>
    <path class="st14" d="M98.27,119.9c1.46.56,2.99,1.02,4.31,1.91l-2.27-.88-2.04-1.04Z"/>
    <path class="st1" d="M105.49,174.42c.66,1,2.27.97,2.55-.36.13-.64-.03-1.13-.42-1.63,2.03,1.54-1.13,4.38-2.13,1.99Z"/>
    <path class="st3" d="M115.09,137.91c.24-.08,1.33,4.66,1.16,5.09-.36-1.71-.81-3.39-1.16-5.09Z"/>
    <path class="st9" d="M109.62,120.52c.23-.07.21.49.29.57.02.02.49-.01.51.11.02.14-.78.34-.66.87-.38-.38-.13-.58-.8-.68.55-.02.59-.85.66-.87Z"/>
    <path class="st9" d="M122.18,145.54c.46.34.04.55.8.68-.43.28-.63.22-.66.87-.07-.61-.77-.63-.8-.68-.12-.24.87-.27.66-.87Z"/>
    <path class="st9" d="M58.83,171.03c.48.23,0,.78.8.68-.41.44-.5.14-.66.87,0-.57-.79-.62-.8-.68-.02-.18.83-.29.66-.87Z"/>
    <path class="st14" d="M76.04,174.98c.23-.02,2.33,1.19,2.74,1.33-.13.2-.15.11-.32.07-.25-.06-2.24-.96-2.41-1.11-.13-.11-.17-.28,0-.29Z"/>
    <path class="st16" d="M107.62,172.42c.39.5.55.99.42,1.63-.19-.09-.06-.46-.11-.63-.18-.63-.9-.84-.86-1.36.22.02.4.23.56.35Z"/>
    <path class="st8" d="M108.43,126.35c.62.66,1.49,1.33,1.8,2.22-.07-.26-2.1-2.06-1.8-2.22Z"/>
    <path class="st9" d="M66.39,126.08c.35-.08.6.61.21.77-.59.23-.6-.68-.21-.77Z"/>
    <path class="st14" d="M81.78,177.43l1.7.33c-.42.23-1.36,0-1.7-.33Z"/>
    <path class="st15" d="M111.75,130.42c.4.64.98,1.3,1.16,2.07-.4-.62-.97-1.33-1.16-2.07Z"/>
    <path class="st14" d="M118.84,138.15c.4-.13.57.55.2.67-.4.13-.57-.55-.2-.67Z"/>
    <path class="st9" d="M59.09,138.16c.4-.13.57.55.2.67-.4.13-.57-.55-.2-.67Z"/>
    <path class="st14" d="M115.49,165.47c.43-.14.5.63.11.68-.35.04-.43-.57-.11-.68Z"/>
    <path class="st9" d="M119.52,157.02c.37-.1.45.43.2.57-.43.25-.55-.47-.2-.57Z"/>
    <path class="st9" d="M59.21,159.5c.23-.05.49.41.2.57-.46.25-.52-.51-.2-.57Z"/>
    <g>
      <path class="st12" d="M61.61,165c-.03-.26-.05-.72-.03-.97.39-4.05,6.92-3.72,6.52.99-.33,3.85-6.01,4.46-6.49-.01Z"/>
      <path class="st16" d="M63.67,161.94c2.38-.58,1.51,2.93-.17,3.33-2.53.6-1.25-2.98.17-3.33Z"/>
    </g>
    <g>
      <path class="st1" d="M102.4,125.09c-.12.21-.29,1.65-.21,1.92.28.97,2.26,1.13,2.74-.13,1.18,1.8,2.58,3.46,3.64,5.37,10.7,19.24-2.25,42.3-23.53,40.98-4.32-.27-8.58-2.04-12.71-3.17-3.19-.19-7.79,1.03-10.08-2.32-.32-.47-1.31-2.26-.63-2.74.48,4.48,6.16,3.87,6.49.01.4-4.71-6.13-5.04-6.52-.99l-.27.07c-.04-2.79,3.06-3.93,2.81-6.57-.29-3.07-1.12-5.65-1.1-8.95.11-20.79,23.19-34.46,39.38-23.49Z"/>
      <path class="st12" d="M90.05,124.53c.85-.1,1.72,0,2.55-.22-2.32-.62-4.88-.02-7.2.52-6.07,1.41-11.92,4.78-15.01,10.78.14.25,1.34-1.57,1.5-1.76,3.58-4.29,8.27-7.72,13.62-8.74.35-.07.73-.11,1.09-.17.43.74,1.72.15,2.43.13,20.25-.34,29.52,26.36,13.41,40.56-13.26,11.69-34.48,3.92-35.95-14.57-.46-5.72,1.77-10.37,3.53-15.64-.18-.12-.23-.11-.41-.02-.91.43-3.08,7.04-3.26,8.35-.3-.38.24-.83-.26-1.1-.31.04-.86,3.31-1.44,3.6.64-8.73,6.46-16.83,13.79-20.69,4.52-2.38,9.3-3.24,14.26-2.69,1,.11,5.34.92,5.77,1.82.45.94-1.01.25-1.23.23-2.09-.24-3.83-.02-5.94-.1-.37-.01-1.05.08-1.24-.31Z"/>
      <path class="st0" d="M90.05,124.53c-1.09.13-2.4.25-3.46.42-.36.06-.74.1-1.09.17l-.1-.29c2.32-.54,4.88-1.14,7.2-.52-.83.22-1.7.12-2.55.22Z"/>
      <path class="st11" d="M99.05,168.6c.13,0,.25-.06.23.13-1.84.97-3.72,2.05-5.77,2.42l5.54-2.56Z"/>
      <path class="st11" d="M104.15,165.14c.15-.02.21-.07.23.13.03.3-2,1.46-2.42,1.43l2.19-1.56Z"/>
      <path class="st11" d="M105.63,162.71c.27.04.13.64-.26.6-.31-.03.22-.61.26-.6Z"/>
      <path class="st13" d="M85.5,125.12c-5.35,1.02-10.04,4.45-13.62,8.74-.15.19-1.36,2.01-1.5,1.76,3.1-6,8.94-9.37,15.01-10.78l.1.29Z"/>
      <g>
        <path class="st0" d="M84.87,126.72c19.21-3.05,32.65,21.43,17.94,36.46-15.41,15.75-41.48.02-33.27-22.54,2.37-6.5,8.75-12.88,15.33-13.92Z"/>
        <path class="st3" d="M86.11,128.59c6.97-.96,15.5,3.75,18.64,10.34,8.91,18.68-12.17,37.46-28.05,24.99-13.07-10.26-6.55-33.12,9.41-35.33Z"/>
        <path class="st5" d="M99.41,134.55c18.67,17.12-10.27,45.79-24.91,24.54,6.07,2.26,13.2,1.67,18.12-3.33,5.83-5.92,6.42-15.34,2.01-22.12.19-.27,1.82.1,2.15.2.72.22,1.87,1.2,2.41,1.11.1-.02.46-.16.22-.4Z"/>
        <g>
          <path class="st7" d="M99.41,134.55c.25.24-.11.39-.22.4-.54.09-1.69-.89-2.41-1.11-.34-.1-1.96-.47-2.15-.2,4.41,6.78,3.82,16.2-2.01,22.12-4.93,5-12.05,5.59-18.12,3.33-11.54-16.74,9.85-38.36,24.91-24.54Z"/>
          <path class="st10" d="M86.34,131.5c.07.16-.23.29-.31.31-4.68,1.49-8.47,4.65-10.63,9.42-.92,2.04-1.86,4.95-1.38,7.16,2.65-3.6,4.85-7.57,7.89-10.85,1.45-1.57,3.3-2.93,4.7-4.5.36-.4.94-.93.91-1.52,2.03-.01,4.82.32,6.18,1.98-5.99,1.02-10.47,4.22-14.34,9.13-3.22,4.09-6.4,9.1-5.53,14.65-2.36-5.46-1.7-11.8.88-17.17,2.14-4.45,6.96-8.15,11.61-8.61Z"/>
          <path class="st4" d="M87.53,131.52c.03.59-.55,1.12-.91,1.52-1.4,1.57-3.25,2.93-4.7,4.5-3.03,3.28-5.23,7.25-7.89,10.85-.49-2.21.46-5.12,1.38-7.16,2.15-4.77,5.94-7.93,10.63-9.42.08-.03.38-.15.31-.31.42-.04.79.02,1.19.02Z"/>
        </g>
      </g>
    </g>
  </g>
  <g>
    <path class="st2" d="M159.08,108.61v8.46h-8.73v11.37h7.14v8.46h-7.14v12.96h8.99v8.46h-18.38v-49.71h18.11Z"/>
    <path class="st2" d="M170.71,108.61l4.23,37.68,4.36-37.68h8.2l-7.54,49.71h-11.24l-7.54-49.71h9.52Z"/>
    <path class="st2" d="M208.66,108.61v8.46h-8.73v11.37h7.14v8.46h-7.14v12.96h8.99v8.46h-18.38v-49.71h18.11Z"/>
    <path class="st2" d="M222.14,139.29v19.04h-8.86v-49.71h10.31c2.25,0,5.82,0,8.59,1.98,2.38,1.72,4.63,5.42,4.63,12.82,0,6.68-1.85,10.84-4.63,13.22l5.82,21.68h-9.78l-4.1-19.04h-1.98ZM222.14,130.96h1.72c.66,0,1.59,0,2.25-.66.92-.93,1.32-3.44,1.32-6.61s-.4-5.16-1.19-6.08c-.66-.79-1.59-.79-2.12-.79h-1.98v14.15Z"/>
    <path class="st2" d="M248.85,108.61l3.83,20.09,3.83-20.09h8.2l-8.2,32.12v17.58h-9.39v-17.32l-8.2-32.39h9.92Z"/>
    <path class="st2" d="M287.32,108.61v8.59h-6.35v41.11h-9.39v-41.11h-6.21v-8.59h21.95Z"/>
    <path class="st2" d="M300.01,108.61v19.83h5.55v-19.83h9.39v49.71h-9.39v-21.42h-5.55v21.42h-9.39v-49.71h9.39Z"/>
    <path class="st2" d="M329.89,108.61v49.71h-9.39v-49.71h9.39Z"/>
    <path class="st2" d="M344.96,108.61l8.2,29.08v-29.08h7.93v49.71h-8.86l-8.86-29.61v29.61h-7.93v-49.71h9.52Z"/>
    <path class="st2" d="M388.99,130.96v26.57s-4.63,1.19-9.12,1.19c-13.09,0-14.01-10.31-14.01-24.13,0-15.67,1.19-26.37,15.6-26.37,3.57,0,6.74.66,6.74.66v8.2h-.4s-3.04-.66-5.68-.66c-6.48,0-6.88,4.03-6.88,17.72,0,11.17.26,16.79,4.36,16.79.59,0,1.45-.13,1.45-.13v-11.5h-3.04v-8.33h10.97Z"/>
  </g>
  <g>
    <path class="st2" d="M150.4,196.9s-1.21.35-2.77.35c-6.71,0-6.97-6.62-6.97-16.36s.26-16.54,6.97-16.54c1.52,0,2.77.35,2.77.35v2.42h-.17s-1-.39-2.25-.39c-4.03,0-4.37,3.94-4.37,14.03s.35,14.07,4.37,14.07c1.26,0,2.25-.39,2.25-.39h.17v2.47Z"/>
    <path class="st2" d="M163.17,197.07l-1.43-9.35h-6.1l-1.47,9.35h-2.47l5.45-32.55h3.72l5.19,32.55h-2.9ZM156.03,185.34h5.37l-2.55-17.4-2.81,17.4Z"/>
    <path class="st2" d="M173.95,182.66h-2.34v14.42h-2.77v-32.55h4.37c1.47,0,3.07,0,4.55,1.13,1.3,1,2.47,2.86,2.47,7.62,0,5.28-1.43,7.84-3.59,8.87l4.37,14.93h-3.03l-3.98-14.42h-.04ZM171.61,180.19h2.08c.56,0,1.3-.04,1.99-.56.95-.74,1.73-2.51,1.73-6.1,0-3.12-.56-5.06-1.69-5.97-.74-.56-1.43-.61-2.42-.61h-1.69v13.25Z"/>
    <path class="st2" d="M187.46,164.52c2.34,0,4.55.04,6.28,1.52,2.47,2.08,3.2,6.1,3.2,14.68s-.78,12.81-3.33,14.89c-1.82,1.47-3.9,1.47-6.15,1.47h-3.16v-32.55h3.16ZM187.16,194.6h.65c1.82,0,3.03-.09,4.03-1.04,1.9-1.86,2.16-6.23,2.16-12.77s-.26-10.91-2.16-12.77c-1-.95-2.21-1.04-4.03-1.04h-.65v27.62Z"/>
    <path class="st2" d="M217.8,180.19v16.62s-1.99.39-3.85.39c-6.97,0-7.92-5.54-7.92-16.02s1.04-16.88,8.23-16.88c1.95,0,3.29.43,3.29.43v2.47h-.17s-1.3-.52-2.94-.52c-4.63,0-5.5,4.11-5.5,14.24s.82,13.9,5.02,13.9c.61,0,1.34-.09,1.34-.09v-12.08h-3.38v-2.47h5.89Z"/>
    <path class="st2" d="M231.61,197.07l-1.43-9.35h-6.1l-1.47,9.35h-2.47l5.45-32.55h3.72l5.2,32.55h-2.9ZM224.47,185.34h5.37l-2.55-17.4-2.81,17.4Z"/>
    <path class="st2" d="M241.44,164.52l4.98,27.66,4.93-27.66h4.16v32.55h-2.77v-29.13l-5.11,28.35h-2.77l-5.11-28.35v29.13h-2.47v-32.55h4.16Z"/>
    <path class="st2" d="M269.44,164.52v2.47h-6.49v11.99h5.5v2.51h-5.5v13.07h6.67v2.51h-9.52v-32.55h9.35Z"/>
  </g>
  <path class="st6" d="M121.73,196.8l-61.56,12.47c-4.7.95-9.22-2.37-10.11-7.42l-16.27-92.75c-.89-5.05,2.2-9.91,6.9-10.86l61.56-12.47c4.7-.95,9.22,2.37,10.11,7.42l16.27,92.75c.89,5.05-2.2,9.91-6.9,10.86Z"/>
  <g id="Generatives_Objekt1" data-name="Generatives_Objekt">
    <path class="st14" d="M83.69,175.36s.66.67.77.7c2.79.56.63-4.97-.91-.86-2.52.17-5.36-.02-7.81-.7-1.14-.32-2.44-1.11-3.51-1.37-3.77-.89-11.06,3.84-13.38-2.46-1.46-3.97,1.31-5.02,1.25-8.66.76,2.54-2.05,4.27-1.45,7l.25-.12c.03.25.14.7.22.95-.57.6.76,2.16,1.16,2.56,2.9,2.82,7.17.72,10.34.27,4.27.29,8.79,1.17,13.08.58,21.12-2.93,29.23-28.11,14.92-44.84-1.42-1.66-3.12-3.01-4.63-4.54.1-.61-.14-.98-.36-1.52.77.76.38.91.61,1.4.08.17,2.34,1.66,2.72,1.98,16.86,14.4,12.35,41.58-8.05,48.51-.57.19-2.59.49-2.84.67-.4.28-1,2.77-2.38.45Z"/>
    <path class="st16" d="M73.49,119.85c.74-.23,1.47-.36,2.23-.5.1.02-.02.2-.04.21-.35.23-2.34.74-2.95,1-7.16,3.03-12.85,8.77-16.01,16.3-.46,1.1-.68,2.33-1.27,3.37,1.84-9.19,9.66-17.76,18.05-20.38Z"/>
    <path class="st16" d="M108.07,158.35c.43-.16.12.62.06.84-1.28,4.57-6.19,10.64-9.88,13.22-1.04.73-2.45,1.62-3.65,1.85,6.15-3.45,10.81-9.06,13.47-15.91Z"/>
    <path class="st12" d="M53.7,136.82c.82,1.92-1.54,3.89-2.77,2.17.12-.91-.18-1.7.45-2.49l-.5-.12c.99-.89,2.21-.88,2.82.44Z"/>
    <path class="st12" d="M93.64,122.34c.21.53.46.91.36,1.52-.22,1.33-2.18,1.57-2.66.67-.13-.24-.25-1.69-.17-1.92.34-1.01,1.77-.96,2.47-.27Z"/>
    <path class="st16" d="M109.26,141.09c.34-.12.64,1.64.7,1.98.52,2.76.43,7.54-.11,10.31-.03.17-.58,2.91-.86,1.54-.04-.2.54-2.94.59-3.49.21-2.39.2-4.86-.02-7.25-.04-.48-.61-2.98-.31-3.09Z"/>
    <path class="st16" d="M54.44,149.73l2.63,11.59c-2.06-3.12-3.05-7.79-2.63-11.59Z"/>
    <path class="st12" d="M105.07,167.73c.07.52.82.57,1.12,1.16.08.16.03.54.23.59,0,1.36-1.58,1.71-2.42.86-.76-1.11-.17-2.49,1.07-2.61Z"/>
    <path class="st12" d="M83.69,175.36c-.05-.09-.12-.09-.13-.17,1.53-4.11,3.69,1.43.91.86-.11-.02-.75-.65-.77-.7Z"/>
    <path class="st1" d="M50.68,136.74c-.35.83-.25,1.55.25,2.25,1.23,1.73,3.6-.24,2.77-2.17.39.85.38,1.81-.3,2.5-1.6,1.62-4.06-.6-2.72-2.59Z"/>
    <path class="st16" d="M50.93,138.99c-.5-.7-.59-1.42-.25-2.25.06-.09.05-.22.2-.36l.5.12c-.63.79-.33,1.58-.45,2.49Z"/>
    <path class="st9" d="M60.42,124.51c.89-.59,1.3,1.21.27,1.14-.44-.03-.64-.89-.27-1.14Z"/>
    <path class="st14" d="M86.09,118.35c1.54.26,3.13.41,4.6,1.02l-2.39-.41-2.21-.61Z"/>
    <path class="st1" d="M103.99,170.35c.85.85,2.42.5,2.42-.86,0-.66-.25-1.1-.73-1.52,2.29,1.1-.23,4.51-1.69,2.38Z"/>
    <path class="st3" d="M106.15,132.66c.22-.13,2.23,4.31,2.15,4.76-.69-1.6-1.46-3.16-2.15-4.76Z"/>
    <path class="st9" d="M97.33,116.7c.21-.12.31.43.4.5.02.01.48-.11.52.01.05.14-.7.49-.47.99-.45-.29-.25-.54-.92-.51.53-.13.41-.95.47-.99Z"/>
    <path class="st9" d="M114.61,138.73c.52.24.15.53.92.51-.36.36-.57.34-.47.99-.18-.58-.88-.46-.92-.51-.17-.21.8-.44.47-.99Z"/>
    <path class="st9" d="M57.59,176.3c.51.13.15.76.92.51-.32.51-.46.24-.47.99-.11-.56-.9-.45-.92-.51-.06-.17.75-.45.47-.99Z"/>
    <path class="st14" d="M75.24,176.74c.22-.06,2.51.7,2.95.76-.08.22-.12.14-.3.13-.26,0-2.39-.5-2.58-.61-.15-.08-.22-.24-.07-.28Z"/>
    <path class="st16" d="M105.69,167.97c.48.41.74.86.73,1.52-.21-.05-.15-.44-.23-.59-.3-.58-1.05-.64-1.12-1.16.22-.02.44.15.62.24Z"/>
    <path class="st8" d="M97.33,122.65c.73.52,1.72,1.01,2.21,1.82-.12-.24-2.46-1.6-2.21-1.82Z"/>
    <path class="st9" d="M56.07,130.74c.33-.15.71.48.35.71-.53.35-.72-.55-.35-.71Z"/>
    <path class="st14" d="M81.36,178.01l1.73-.02c-.36.31-1.33.28-1.73.02Z"/>
    <path class="st15" d="M101.39,125.99c.52.55,1.22,1.08,1.55,1.8-.51-.53-1.22-1.11-1.55-1.8Z"/>
    <path class="st14" d="M109.88,132.15c.37-.21.67.42.33.62-.37.21-.67-.42-.33-.62Z"/>
    <path class="st9" d="M51.32,144.02c.37-.21.67.42.33.62-.37.21-.67-.42-.33-.62Z"/>
    <path class="st14" d="M112.02,159.6c.4-.22.61.51.24.64-.33.11-.54-.48-.24-.64Z"/>
    <path class="st9" d="M114.29,150.51c.34-.17.52.33.31.52-.37.33-.63-.35-.31-.52Z"/>
    <path class="st9" d="M55.67,164.92c.21-.09.56.31.31.52-.4.34-.61-.39-.31-.52Z"/>
    <g>
      <path class="st12" d="M59.12,169.83c-.08-.25-.2-.7-.22-.95-.42-4.04,6.04-5.02,6.58-.33.44,3.84-5,5.57-6.36,1.27Z"/>
      <path class="st16" d="M60.53,166.43c2.22-1.05,2.06,2.57.49,3.29-2.36,1.09-1.81-2.67-.49-3.29Z"/>
    </g>
    <g>
      <path class="st1" d="M91.17,122.61c-.08.23.04,1.68.17,1.92.47.9,2.44.66,2.66-.67,1.52,1.53,3.22,2.88,4.63,4.54,14.31,16.73,6.2,41.9-14.92,44.84-4.29.6-8.81-.29-13.08-.58-3.17.45-7.43,2.56-10.34-.27-.41-.4-1.74-1.96-1.16-2.56,1.36,4.29,6.8,2.57,6.36-1.27-.54-4.69-7.01-3.72-6.58.33l-.25.12c-.6-2.73,2.21-4.46,1.45-7-.89-2.95-2.22-5.31-2.86-8.55-4.02-20.4,15.88-38.38,33.93-30.84Z"/>
      <path class="st12" d="M78.95,124.52c.81-.26,1.68-.34,2.46-.72-2.39-.15-4.79.95-6.95,1.94-5.67,2.58-10.73,7.05-12.57,13.55.19.22,1.01-1.81,1.12-2.02,2.65-4.92,6.57-9.21,11.61-11.27.33-.14.7-.25,1.04-.38.57.64,1.72-.2,2.4-.35,19.78-4.36,34.17,19.97,21.2,37.09-10.67,14.09-33.01,10.69-38.12-7.14-1.58-5.52-.32-10.52.36-16.03-.2-.08-.24-.06-.41.06-.81.6-1.62,7.52-1.53,8.84-.37-.32.07-.86-.48-1.03-.29.1-.19,3.42-.7,3.82-1.11-8.68,2.99-17.78,9.41-23.02,3.96-3.23,8.47-5.02,13.44-5.47,1-.09,5.42-.16,6.01.64.63.83-.94.45-1.16.47-2.09.18-3.76.74-5.84,1.08-.37.06-1.02.28-1.28-.06Z"/>
      <path class="st0" d="M78.95,124.52c-1.04.34-2.3.72-3.31,1.1-.34.13-.7.25-1.04.38l-.16-.26c2.17-.99,4.56-2.09,6.95-1.94-.77.38-1.65.45-2.46.72Z"/>
      <path class="st11" d="M96.53,165.92c.12-.03.23-.11.25.08-1.61,1.32-3.24,2.75-5.18,3.52l4.92-3.61Z"/>
      <path class="st11" d="M100.84,161.52c.15-.05.2-.11.25.08.09.29-1.67,1.83-2.09,1.88l1.84-1.96Z"/>
      <path class="st11" d="M101.8,158.84c.27-.01.26.61-.13.64-.31.03.1-.64.13-.64Z"/>
      <path class="st13" d="M74.61,126c-5.04,2.06-8.96,6.35-11.61,11.27-.11.21-.93,2.24-1.12,2.02,1.84-6.5,6.9-10.96,12.57-13.55l.16.26Z"/>
      <g>
        <path class="st0" d="M74.31,127.7c18.22-6.81,36.25,14.52,24.83,32.17-11.97,18.49-40.65,8.26-37.09-15.48,1.03-6.85,6.01-14.36,12.26-16.69Z"/>
        <path class="st3" d="M75.9,129.28c6.64-2.33,15.93.59,20.32,6.43,12.44,16.54-4.49,39.13-22.53,30.06-14.85-7.46-13-31.16,2.21-36.49Z"/>
        <path class="st5" d="M90.11,132.48c21.7,13.07-.97,46.92-19.54,29,6.4,1.01,13.27-.99,17.1-6.86,4.54-6.96,3.24-16.31-2.43-22.08.14-.31,1.8-.26,2.15-.23.75.07,2.07.8,2.58.61.1-.04.42-.25.13-.44Z"/>
        <g>
          <path class="st7" d="M90.11,132.48c.29.19-.03.4-.13.44-.51.19-1.84-.54-2.58-.61-.35-.03-2.01-.08-2.15.23,5.67,5.77,6.97,15.12,2.43,22.08-3.84,5.88-10.7,7.88-17.1,6.86-14.63-14.12,2.03-39.55,19.54-29Z"/>
          <path class="st10" d="M76.7,132.09c.1.15-.17.33-.24.37-4.29,2.39-7.38,6.24-8.54,11.34-.5,2.18-.84,5.22.07,7.29,1.88-4.06,3.25-8.39,5.57-12.2,1.11-1.82,2.65-3.53,3.71-5.34.27-.47.74-1.1.59-1.67,1.98-.41,4.79-.65,6.45.72-5.67,2.19-9.42,6.21-12.24,11.79-2.34,4.65-4.46,10.19-2.51,15.45-3.39-4.88-4.01-11.23-2.55-17,1.22-4.79,5.2-9.37,9.67-10.74Z"/>
          <path class="st4" d="M77.87,131.87c.14.57-.32,1.2-.59,1.67-1.06,1.82-2.61,3.52-3.71,5.34-2.32,3.81-3.69,8.14-5.57,12.2-.92-2.07-.57-5.11-.07-7.29,1.16-5.1,4.25-8.95,8.54-11.34.08-.04.34-.22.24-.37.4-.12.78-.13,1.17-.22Z"/>
        </g>
      </g>
    </g>
  </g>
</svg>