<?xml version="1.0" encoding="UTF-8"?>
<svg id="Ebene_1" xmlns="http://www.w3.org/2000/svg" version="1.1" viewBox="0 0 31.88 32">
  <!-- Generator: Adobe Illustrator 29.6.1, SVG Export Plug-In . SVG Version: 2.1.1 Build 9)  -->
  <defs>
    <style>
      .st0 {
        fill: #fbd89c;
      }

      .st1 {
        fill: #fff;
        stroke: #1d1d1b;
        stroke-miterlimit: 10;
        stroke-width: .87px;
      }

      .st2 {
        fill: #f39539;
      }

      .st3 {
        fill: #f6af7c;
      }

      .st4 {
        fill: #202138;
      }

      .st5 {
        fill: #0c0e1b;
      }

      .st6 {
        fill: #f6a52d;
      }

      .st7 {
        fill: #3f6f8e;
      }

      .st8 {
        fill: #f39a6d;
      }

      .st9 {
        fill: #325774;
      }

      .st10 {
        fill: #ec6d39;
      }

      .st11 {
        fill: #fcc323;
      }

      .st12 {
        fill: #1c152f;
      }

      .st13 {
        fill: #ef8138;
      }

      .st14 {
        fill: #f9fcff;
      }

      .st15 {
        fill: #fabc5b;
      }
    </style>
  </defs>
  <path class="st1" d="M23.32,28.35h-13.65c-1.04,0-1.86-.9-1.83-2.02l.54-20.45c.03-1.11.9-2.02,1.94-2.01h13.65c1.04,0,1.86.9,1.83,2.02l-.54,20.45c-.03,1.11-.9,2.02-1.94,2.01Z"/>
  <g id="Generatives_Objekt">
    <path class="st10" d="M16.14,22.14s.11.17.13.18c.57.24.35-1.03-.16-.22-.54-.07-1.14-.24-1.63-.49-.23-.12-.47-.34-.69-.44-.77-.35-2.52.34-2.74-1.1-.14-.91.5-1.01.64-1.79.05.57-.62.82-.61,1.43h.06s0,.14,0,.2c-.15.1.07.49.14.59.5.73,1.5.46,2.19.5.9.25,1.82.63,2.76.69,4.62.29,7.44-4.72,5.11-8.9-.23-.41-.53-.78-.79-1.17.05-.13.01-.22-.01-.34.13.2.04.21.07.32,0,.04.43.45.49.54,2.97,3.79.83,9.39-3.81,9.98-.13.02-.57,0-.63.02-.1.04-.33.55-.53,0Z"/>
    <path class="st11" d="M16.36,9.88c.17-.02.33-.01.5-.01.02,0-.01.04-.02.04-.08.03-.53.06-.67.09-1.65.34-3.12,1.31-4.11,2.78-.15.21-.25.47-.42.66.79-1.88,2.82-3.36,4.72-3.56Z"/>
    <path class="st11" d="M22.06,19.57c.1-.02,0,.14-.02.18-.47.92-1.78,2-2.68,2.39-.25.11-.59.24-.86.24,1.46-.47,2.69-1.46,3.56-2.81Z"/>
    <path class="st6" d="M11.42,12.64c.09.44-.5.76-.68.34.06-.19.03-.37.2-.51l-.1-.05c.25-.15.51-.09.58.22Z"/>
    <path class="st6" d="M20.55,11.28c.02.12.06.21.01.34-.1.27-.53.24-.59.03-.02-.06.02-.37.05-.42.12-.2.42-.13.54.05Z"/>
    <path class="st11" d="M23.06,15.95c.08-.01.06.38.06.45,0,.61-.23,1.62-.47,2.19-.01.04-.25.59-.25.29,0-.04.24-.6.28-.72.15-.5.25-1.03.31-1.55.01-.1,0-.66.07-.67Z"/>
    <path class="st11" d="M11.02,15.42l.06,2.58c-.3-.75-.31-1.79-.06-2.58Z"/>
    <path class="st6" d="M21.02,21.44c0,.11.15.16.19.29.01.04-.02.12.02.14-.06.29-.41.3-.55.08-.11-.27.07-.54.34-.51Z"/>
    <path class="st6" d="M16.14,22.14s-.02-.02-.02-.04c.5-.81.72.46.16.22-.02,0-.13-.17-.13-.18Z"/>
    <path class="st13" d="M10.78,12.49c-.11.16-.12.32-.04.49.19.42.78.1.68-.34.05.2,0,.4-.17.52-.41.28-.84-.3-.47-.67Z"/>
    <path class="st11" d="M10.73,12.98c-.08-.17-.07-.33.04-.49.02-.02.02-.05.06-.07l.1.05c-.17.14-.14.32-.2.51Z"/>
    <path class="st12" d="M13.38,10.31c.22-.09.23.31,0,.25-.09-.03-.1-.22,0-.25Z"/>
    <path class="st10" d="M19.11,10.1c.32.12.65.22.94.42l-.49-.19-.44-.23Z"/>
    <path class="st13" d="M20.68,21.95c.14.22.49.21.55-.08.03-.14,0-.25-.09-.35.44.33-.24.95-.46.43Z"/>
    <path class="st0" d="M22.77,14.02c.05-.02.29,1.01.25,1.11-.08-.37-.18-.74-.25-1.11Z"/>
    <path class="st12" d="M21.58,10.24c.05-.02.05.11.06.12,0,0,.11,0,.11.02,0,.03-.17.07-.14.19-.08-.08-.03-.13-.17-.15.12,0,.13-.18.14-.19Z"/>
    <path class="st12" d="M24.31,15.68c.1.07,0,.12.17.15-.09.06-.14.05-.14.19-.01-.13-.17-.14-.17-.15-.03-.05.19-.06.14-.19Z"/>
    <path class="st12" d="M10.54,21.21c.1.05,0,.17.17.15-.09.1-.11.03-.14.19,0-.12-.17-.13-.17-.15,0-.04.18-.06.14-.19Z"/>
    <path class="st10" d="M14.28,22.07s.51.26.59.29c-.03.04-.03.02-.07.02-.06-.01-.49-.21-.52-.24-.03-.02-.04-.06,0-.06Z"/>
    <path class="st11" d="M21.14,21.52c.08.11.12.21.09.35-.04-.02-.01-.1-.02-.14-.04-.14-.2-.18-.19-.29.05,0,.09.05.12.08Z"/>
    <path class="st8" d="M21.32,11.51c.13.14.32.29.39.48-.01-.06-.46-.45-.39-.48Z"/>
    <path class="st12" d="M12.19,11.45c.08-.02.13.13.04.17-.13.05-.13-.15-.04-.17Z"/>
    <path class="st10" d="M15.53,22.6l.37.07c-.09.05-.3,0-.37-.07Z"/>
    <path class="st3" d="M22.04,12.39c.09.14.21.28.25.45-.09-.13-.21-.29-.25-.45Z"/>
    <path class="st10" d="M23.58,14.07c.09-.03.12.12.04.15-.09.03-.12-.12-.04-.15Z"/>
    <path class="st12" d="M10.6,14.07c.09-.03.12.12.04.15-.09.03-.12-.12-.04-.15Z"/>
    <path class="st10" d="M22.85,20.01c.09-.03.11.14.02.15-.08,0-.09-.12-.02-.15Z"/>
    <path class="st12" d="M23.73,18.17c.08-.02.1.09.04.12-.09.05-.12-.1-.04-.12Z"/>
    <path class="st12" d="M10.62,18.71s.11.09.04.12c-.1.05-.11-.11-.04-.12Z"/>
    <g>
      <path class="st6" d="M11.15,19.9c0-.06-.01-.16,0-.21.08-.88,1.5-.81,1.42.21-.07.84-1.31.97-1.41,0Z"/>
      <path class="st11" d="M11.59,19.24c.52-.13.33.64-.04.72-.55.13-.27-.65.04-.72Z"/>
    </g>
    <g>
      <path class="st13" d="M20.01,11.23s-.06.36-.05.42c.06.21.49.24.59-.03.26.39.56.75.79,1.17,2.33,4.18-.49,9.19-5.11,8.9-.94-.06-1.86-.44-2.76-.69-.69-.04-1.69.22-2.19-.5-.07-.1-.29-.49-.14-.59.1.97,1.34.84,1.41,0,.09-1.02-1.33-1.09-1.42-.21h-.06c0-.59.66-.84.61-1.41-.06-.67-.24-1.23-.24-1.94.02-4.52,5.04-7.49,8.56-5.1Z"/>
      <path class="st6" d="M17.33,11.11c.18-.02.37,0,.55-.05-.5-.13-1.06,0-1.56.11-1.32.31-2.59,1.04-3.26,2.34.03.06.29-.34.33-.38.78-.93,1.8-1.68,2.96-1.9.08-.01.16-.02.24-.04.09.16.37.03.53.03,4.4-.07,6.41,5.73,2.91,8.81-2.88,2.54-7.49.85-7.81-3.16-.1-1.24.39-2.25.77-3.4-.04-.03-.05-.02-.09,0-.2.09-.67,1.53-.71,1.82-.06-.08.05-.18-.06-.24-.07,0-.19.72-.31.78.14-1.9,1.4-3.66,3-4.5.98-.52,2.02-.7,3.1-.58.22.02,1.16.2,1.25.39.1.2-.22.05-.27.05-.45-.05-.83,0-1.29-.02-.08,0-.23.02-.27-.07Z"/>
      <path class="st15" d="M17.33,11.11c-.24.03-.52.05-.75.09-.08.01-.16.02-.24.04l-.02-.06c.5-.12,1.06-.25,1.56-.11-.18.05-.37.03-.55.05Z"/>
      <path class="st2" d="M19.28,20.69s.05-.01.05.03c-.4.21-.81.45-1.25.53l1.2-.56Z"/>
      <path class="st2" d="M20.39,19.94s.05-.01.05.03c0,.07-.44.32-.53.31l.48-.34Z"/>
      <path class="st2" d="M20.71,19.41c.06,0,.03.14-.06.13-.07,0,.05-.13.06-.13Z"/>
      <path class="st14" d="M16.34,11.24c-1.16.22-2.18.97-2.96,1.9-.03.04-.3.44-.33.38.67-1.3,1.94-2.04,3.26-2.34l.02.06Z"/>
      <g>
        <path class="st15" d="M16.2,11.59c4.17-.66,7.09,4.66,3.9,7.92-3.35,3.42-9.01,0-7.23-4.9.51-1.41,1.9-2.8,3.33-3.02Z"/>
        <path class="st0" d="M16.47,11.99c1.51-.21,3.37.81,4.05,2.25,1.94,4.06-2.65,8.14-6.09,5.43-2.84-2.23-1.42-7.2,2.04-7.67Z"/>
        <path class="st5" d="M19.36,13.29c4.06,3.72-2.23,9.95-5.41,5.33,1.32.49,2.87.36,3.94-.72,1.27-1.29,1.39-3.33.44-4.81.04-.06.39.02.47.04.16.05.41.26.52.24.02,0,.1-.04.05-.09Z"/>
        <g>
          <path class="st4" d="M19.36,13.29c.05.05-.02.08-.05.09-.12.02-.37-.19-.52-.24-.07-.02-.43-.1-.47-.04.96,1.47.83,3.52-.44,4.81-1.07,1.09-2.62,1.22-3.94.72-2.51-3.64,2.14-8.33,5.41-5.33Z"/>
          <path class="st9" d="M16.52,12.63s-.05.06-.07.07c-1.02.32-1.84,1.01-2.31,2.05-.2.44-.4,1.07-.3,1.56.58-.78,1.05-1.65,1.71-2.36.31-.34.72-.64,1.02-.98.08-.09.2-.2.2-.33.44,0,1.05.07,1.34.43-1.3.22-2.27.92-3.11,1.98-.7.89-1.39,1.98-1.2,3.18-.51-1.19-.37-2.56.19-3.73.47-.97,1.51-1.77,2.52-1.87Z"/>
          <path class="st7" d="M16.78,12.63c0,.13-.12.24-.2.33-.3.34-.71.64-1.02.98-.66.71-1.14,1.57-1.71,2.36-.11-.48.1-1.11.3-1.56.47-1.04,1.29-1.72,2.31-2.05.02,0,.08-.03.07-.07.09,0,.17,0,.26,0Z"/>
        </g>
      </g>
    </g>
  </g>
  <path class="st1" d="M24.21,26.81l-13.37,2.71c-1.02.21-2-.51-2.2-1.61L5.1,7.76c-.19-1.1.48-2.15,1.5-2.36l13.37-2.71c1.02-.21,2,.51,2.2,1.61l3.54,20.15c.19,1.1-.48,2.15-1.5,2.36Z"/>
  <g id="Generatives_Objekt1" data-name="Generatives_Objekt">
    <path class="st10" d="M15.94,22.15s.14.15.17.15c.61.12.14-1.08-.2-.19-.55.04-1.16,0-1.7-.15-.25-.07-.53-.24-.76-.3-.82-.19-2.4.84-2.91-.54-.32-.86.28-1.09.27-1.88.17.55-.44.93-.32,1.52l.06-.03c0,.05.03.15.05.21-.12.13.16.47.25.56.63.61,1.56.16,2.25.06.93.06,1.91.26,2.84.13,4.59-.64,6.35-6.11,3.24-9.74-.31-.36-.68-.65-1.01-.99.02-.13-.03-.21-.08-.33.17.17.08.2.13.3.02.04.51.36.59.43,3.66,3.13,2.68,9.03-1.75,10.54-.12.04-.56.11-.62.15-.09.06-.22.6-.52.1Z"/>
    <path class="st11" d="M13.73,10.1c.16-.05.32-.08.48-.11.02,0,0,.04,0,.05-.08.05-.51.16-.64.22-1.55.66-2.79,1.91-3.48,3.54-.1.24-.15.51-.28.73.4-2,2.1-3.86,3.92-4.43Z"/>
    <path class="st11" d="M21.24,18.46c.09-.03.03.14.01.18-.28.99-1.34,2.31-2.15,2.87-.23.16-.53.35-.79.4,1.34-.75,2.35-1.97,2.93-3.46Z"/>
    <path class="st6" d="M9.43,13.78c.18.42-.33.85-.6.47.03-.2-.04-.37.1-.54l-.11-.03c.22-.19.48-.19.61.1Z"/>
    <path class="st6" d="M18.11,10.64c.05.12.1.2.08.33-.05.29-.47.34-.58.15-.03-.05-.05-.37-.04-.42.07-.22.38-.21.54-.06Z"/>
    <path class="st11" d="M21.5,14.71c.07-.03.14.36.15.43.11.6.09,1.64-.02,2.24,0,.04-.13.63-.19.34,0-.04.12-.64.13-.76.05-.52.04-1.06,0-1.58,0-.1-.13-.65-.07-.67Z"/>
    <path class="st11" d="M9.59,16.59l.57,2.52c-.45-.68-.66-1.69-.57-2.52Z"/>
    <path class="st6" d="M20.59,20.5c.01.11.18.12.24.25.02.03,0,.12.05.13,0,.29-.34.37-.53.19-.16-.24-.04-.54.23-.57Z"/>
    <path class="st6" d="M15.94,22.15s-.03-.02-.03-.04c.33-.89.8.31.2.19-.02,0-.16-.14-.17-.15Z"/>
    <path class="st13" d="M8.77,13.76c-.08.18-.05.34.05.49.27.38.78-.05.6-.47.09.18.08.39-.07.54-.35.35-.88-.13-.59-.56Z"/>
    <path class="st11" d="M8.83,14.25c-.11-.15-.13-.31-.05-.49.01-.02.01-.05.04-.08l.11.03c-.14.17-.07.34-.1.54Z"/>
    <path class="st12" d="M10.89,11.11c.19-.13.28.26.06.25-.1,0-.14-.19-.06-.25Z"/>
    <path class="st10" d="M16.46,9.77c.34.06.68.09,1,.22l-.52-.09-.48-.13Z"/>
    <path class="st13" d="M20.35,21.07c.18.18.53.11.53-.19,0-.14-.06-.24-.16-.33.5.24-.05.98-.37.52Z"/>
    <path class="st0" d="M20.82,12.88s.48.94.47,1.03c-.15-.35-.32-.69-.47-1.03Z"/>
    <path class="st12" d="M18.91,9.41s.07.09.09.11c0,0,.1-.02.11,0,.01.03-.15.11-.1.21-.1-.06-.05-.12-.2-.11.12-.03.09-.21.1-.21Z"/>
    <path class="st12" d="M22.66,14.2c.11.05.03.12.2.11-.08.08-.12.07-.1.21-.04-.13-.19-.1-.2-.11-.04-.05.17-.09.1-.21Z"/>
    <path class="st12" d="M10.27,22.36c.11.03.03.17.2.11-.07.11-.1.05-.1.21-.02-.12-.19-.1-.2-.11-.01-.04.16-.1.1-.21Z"/>
    <path class="st10" d="M14.11,22.46s.55.15.64.17c-.02.05-.03.03-.06.03-.06,0-.52-.11-.56-.13-.03-.02-.05-.05-.01-.06Z"/>
    <path class="st11" d="M20.72,20.55c.1.09.16.19.16.33-.05-.01-.03-.09-.05-.13-.07-.13-.23-.14-.24-.25.05,0,.1.03.13.05Z"/>
    <path class="st8" d="M18.91,10.7c.16.11.37.22.48.4-.03-.05-.54-.35-.48-.4Z"/>
    <path class="st12" d="M9.94,12.46c.07-.03.15.1.08.15-.12.07-.16-.12-.08-.15Z"/>
    <path class="st10" d="M15.44,22.73h.38c-.08.06-.29.06-.38,0Z"/>
    <path class="st3" d="M19.79,11.43c.11.12.27.23.34.39-.11-.11-.26-.24-.34-.39Z"/>
    <path class="st10" d="M21.63,12.77c.08-.05.14.09.07.13-.08.05-.14-.09-.07-.13Z"/>
    <path class="st12" d="M8.91,15.35c.08-.05.14.09.07.13-.08.05-.14-.09-.07-.13Z"/>
    <path class="st10" d="M22.1,18.73c.09-.05.13.11.05.14-.07.02-.12-.1-.05-.14Z"/>
    <path class="st12" d="M22.59,16.76c.07-.04.11.07.07.11-.08.07-.14-.08-.07-.11Z"/>
    <path class="st12" d="M9.86,19.89s.12.07.07.11c-.09.07-.13-.09-.07-.11Z"/>
    <g>
      <path class="st6" d="M10.61,20.95c-.02-.05-.04-.15-.05-.21-.09-.88,1.31-1.09,1.43-.07.1.83-1.09,1.21-1.38.28Z"/>
      <path class="st11" d="M10.91,20.21c.48-.23.45.56.11.72-.51.24-.39-.58-.11-.72Z"/>
    </g>
    <g>
      <path class="st13" d="M17.57,10.69c-.02.05,0,.36.04.42.1.19.53.14.58-.15.33.33.7.63,1.01.99,3.11,3.63,1.35,9.1-3.24,9.74-.93.13-1.91-.06-2.84-.13-.69.1-1.61.56-2.25-.06-.09-.09-.38-.43-.25-.56.3.93,1.48.56,1.38-.28-.12-1.02-1.52-.81-1.43.07l-.06.03c-.13-.59.48-.97.32-1.52-.19-.64-.48-1.15-.62-1.86-.87-4.43,3.45-8.34,7.37-6.7Z"/>
      <path class="st6" d="M14.92,11.11c.18-.06.37-.07.53-.16-.52-.03-1.04.21-1.51.42-1.23.56-2.33,1.53-2.73,2.94.04.05.22-.39.24-.44.58-1.07,1.43-2,2.52-2.45.07-.03.15-.06.23-.08.12.14.37-.04.52-.08,4.3-.95,7.42,4.34,4.61,8.06-2.32,3.06-7.17,2.32-8.28-1.55-.34-1.2-.07-2.29.08-3.48-.04-.02-.05-.01-.09.01-.18.13-.35,1.63-.33,1.92-.08-.07.02-.19-.1-.22-.06.02-.04.74-.15.83-.24-1.89.65-3.86,2.04-5,.86-.7,1.84-1.09,2.92-1.19.22-.02,1.18-.03,1.31.14.14.18-.2.1-.25.1-.45.04-.82.16-1.27.24-.08.01-.22.06-.28-.01Z"/>
      <path class="st15" d="M14.92,11.11c-.23.07-.5.16-.72.24-.07.03-.15.05-.23.08l-.03-.06c.47-.21.99-.45,1.51-.42-.17.08-.36.1-.53.16Z"/>
      <path class="st2" d="M18.73,20.1s.05-.02.06.02c-.35.29-.7.6-1.12.77l1.07-.78Z"/>
      <path class="st2" d="M19.67,19.15s.04-.02.06.02c.02.06-.36.4-.45.41l.4-.43Z"/>
      <path class="st2" d="M19.88,18.57c.06,0,.06.13-.03.14-.07,0,.02-.14.03-.14Z"/>
      <path class="st14" d="M13.97,11.43c-1.1.45-1.95,1.38-2.52,2.45-.02.05-.2.49-.24.44.4-1.41,1.5-2.38,2.73-2.94l.03.06Z"/>
      <g>
        <path class="st15" d="M13.91,11.8c3.96-1.48,7.88,3.15,5.39,6.99s-8.83,1.79-8.06-3.36c.22-1.49,1.31-3.12,2.66-3.63Z"/>
        <path class="st0" d="M14.25,12.14c1.44-.51,3.46.13,4.41,1.4,2.7,3.59-.98,8.5-4.89,6.53-3.23-1.62-2.82-6.77.48-7.93Z"/>
        <path class="st5" d="M17.34,12.84c4.71,2.84-.21,10.19-4.25,6.3,1.39.22,2.88-.21,3.72-1.49.99-1.51.7-3.54-.53-4.8.03-.07.39-.06.47-.05.16.02.45.17.56.13.02,0,.09-.05.03-.1Z"/>
        <g>
          <path class="st4" d="M17.34,12.84c.06.04,0,.09-.03.1-.11.04-.4-.12-.56-.13-.08,0-.44-.02-.47.05,1.23,1.25,1.51,3.28.53,4.8-.83,1.28-2.33,1.71-3.72,1.49-3.18-3.07.44-8.59,4.25-6.3Z"/>
          <path class="st9" d="M14.43,12.75s-.04.07-.05.08c-.93.52-1.6,1.36-1.86,2.46-.11.47-.18,1.13.02,1.58.41-.88.71-1.82,1.21-2.65.24-.4.58-.77.81-1.16.06-.1.16-.24.13-.36.43-.09,1.04-.14,1.4.16-1.23.47-2.05,1.35-2.66,2.56-.51,1.01-.97,2.21-.55,3.36-.74-1.06-.87-2.44-.55-3.69.26-1.04,1.13-2.04,2.1-2.33Z"/>
          <path class="st7" d="M14.68,12.71c.03.12-.07.26-.13.36-.23.39-.57.77-.81,1.16-.5.83-.8,1.77-1.21,2.65-.2-.45-.12-1.11-.02-1.58.25-1.11.92-1.94,1.86-2.46.02,0,.07-.05.05-.08.09-.03.17-.03.25-.05Z"/>
        </g>
      </g>
    </g>
  </g>
</svg>